<mxfile host="drawio.corp.amazon.com" modified="2025-08-18T02:32:38.692Z" agent="Mozilla/5.0 (Macintosh; Intel Mac OS X 10_15_7) AppleWebKit/537.36 (KHTML, like Gecko) Chrome/138.0.0.0 Safari/537.36" etag="in2EZlCFXH8F8j85CAbD" scale="1" border="0" version="21.7.4" type="device" pages="2">
  <diagram id="OgWmo9k_zObD6l9St7wO" name="stacks">
    <mxGraphModel dx="1060" dy="761" grid="1" gridSize="10" guides="1" tooltips="1" connect="1" arrows="1" fold="1" page="1" pageScale="1" pageWidth="827" pageHeight="1169" math="0" shadow="0">
      <root>
        <mxCell id="0" />
        <mxCell id="1" parent="0" />
        <mxCell id="j7e-t2jM2b2qdzSvDSfa-3" value="AWS Cloud" style="points=[[0,0],[0.25,0],[0.5,0],[0.75,0],[1,0],[1,0.25],[1,0.5],[1,0.75],[1,1],[0.75,1],[0.5,1],[0.25,1],[0,1],[0,0.75],[0,0.5],[0,0.25]];outlineConnect=0;gradientColor=none;html=1;whiteSpace=wrap;fontSize=12;fontStyle=0;container=1;pointerEvents=0;collapsible=0;recursiveResize=0;shape=mxgraph.aws4.group;grIcon=mxgraph.aws4.group_aws_cloud_alt;strokeColor=#232F3E;fillColor=none;verticalAlign=top;align=left;spacingLeft=30;fontColor=#232F3E;dashed=0;" parent="1" vertex="1">
          <mxGeometry x="40" y="40" width="870" height="1010" as="geometry" />
        </mxCell>
        <mxCell id="j7e-t2jM2b2qdzSvDSfa-4" value="Shared Network Stack" style="fillColor=#EFF0F3;strokeColor=none;dashed=0;verticalAlign=top;fontStyle=0;fontColor=#232F3D;whiteSpace=wrap;html=1;" parent="j7e-t2jM2b2qdzSvDSfa-3" vertex="1">
          <mxGeometry x="315" y="70" width="230" height="170" as="geometry" />
        </mxCell>
        <mxCell id="j7e-t2jM2b2qdzSvDSfa-2" value="" style="sketch=0;outlineConnect=0;fontColor=#232F3E;gradientColor=none;fillColor=#E7157B;strokeColor=none;dashed=0;verticalLabelPosition=bottom;verticalAlign=top;align=center;html=1;fontSize=12;fontStyle=0;aspect=fixed;pointerEvents=1;shape=mxgraph.aws4.stack;" parent="j7e-t2jM2b2qdzSvDSfa-3" vertex="1">
          <mxGeometry x="391" y="117" width="78" height="76" as="geometry" />
        </mxCell>
        <mxCell id="j7e-t2jM2b2qdzSvDSfa-5" value="Webapp Stack" style="fillColor=#EFF0F3;strokeColor=none;dashed=0;verticalAlign=top;fontStyle=0;fontColor=#232F3D;whiteSpace=wrap;html=1;" parent="j7e-t2jM2b2qdzSvDSfa-3" vertex="1">
          <mxGeometry x="320" y="330" width="230" height="170" as="geometry" />
        </mxCell>
        <mxCell id="j7e-t2jM2b2qdzSvDSfa-6" value="" style="sketch=0;outlineConnect=0;fontColor=#232F3E;gradientColor=none;fillColor=#E7157B;strokeColor=none;dashed=0;verticalLabelPosition=bottom;verticalAlign=top;align=center;html=1;fontSize=12;fontStyle=0;aspect=fixed;pointerEvents=1;shape=mxgraph.aws4.stack;" parent="j7e-t2jM2b2qdzSvDSfa-3" vertex="1">
          <mxGeometry x="396" y="377" width="78" height="76" as="geometry" />
        </mxCell>
        <mxCell id="j7e-t2jM2b2qdzSvDSfa-9" value="CI/CD Stack" style="fillColor=#EFF0F3;strokeColor=none;dashed=0;verticalAlign=top;fontStyle=0;fontColor=#232F3D;whiteSpace=wrap;html=1;" parent="j7e-t2jM2b2qdzSvDSfa-3" vertex="1">
          <mxGeometry x="320" y="790" width="230" height="170" as="geometry" />
        </mxCell>
        <mxCell id="j7e-t2jM2b2qdzSvDSfa-10" value="" style="sketch=0;outlineConnect=0;fontColor=#232F3E;gradientColor=none;fillColor=#E7157B;strokeColor=none;dashed=0;verticalLabelPosition=bottom;verticalAlign=top;align=center;html=1;fontSize=12;fontStyle=0;aspect=fixed;pointerEvents=1;shape=mxgraph.aws4.stack;" parent="j7e-t2jM2b2qdzSvDSfa-3" vertex="1">
          <mxGeometry x="396" y="840" width="78" height="76" as="geometry" />
        </mxCell>
        <mxCell id="j7e-t2jM2b2qdzSvDSfa-13" value="VPC" style="points=[[0,0],[0.25,0],[0.5,0],[0.75,0],[1,0],[1,0.25],[1,0.5],[1,0.75],[1,1],[0.75,1],[0.5,1],[0.25,1],[0,1],[0,0.75],[0,0.5],[0,0.25]];outlineConnect=0;gradientColor=none;html=1;whiteSpace=wrap;fontSize=12;fontStyle=0;container=1;pointerEvents=0;collapsible=0;recursiveResize=0;shape=mxgraph.aws4.group;grIcon=mxgraph.aws4.group_vpc;strokeColor=#248814;fillColor=none;verticalAlign=top;align=left;spacingLeft=30;fontColor=#AAB7B8;dashed=0;" parent="j7e-t2jM2b2qdzSvDSfa-3" vertex="1">
          <mxGeometry x="290" y="290" width="550" height="440" as="geometry" />
        </mxCell>
        <mxCell id="j7e-t2jM2b2qdzSvDSfa-29" value="Network Stack" style="fillColor=#EFF0F3;strokeColor=none;dashed=0;verticalAlign=top;fontStyle=0;fontColor=#232F3D;whiteSpace=wrap;html=1;" parent="j7e-t2jM2b2qdzSvDSfa-13" vertex="1">
          <mxGeometry x="30" y="240" width="230" height="170" as="geometry" />
        </mxCell>
        <mxCell id="j7e-t2jM2b2qdzSvDSfa-30" value="" style="sketch=0;outlineConnect=0;fontColor=#232F3E;gradientColor=none;fillColor=#E7157B;strokeColor=none;dashed=0;verticalLabelPosition=bottom;verticalAlign=top;align=center;html=1;fontSize=12;fontStyle=0;aspect=fixed;pointerEvents=1;shape=mxgraph.aws4.stack;" parent="j7e-t2jM2b2qdzSvDSfa-13" vertex="1">
          <mxGeometry x="106" y="287" width="78" height="76" as="geometry" />
        </mxCell>
        <mxCell id="j7e-t2jM2b2qdzSvDSfa-7" value="Storage Stack" style="fillColor=#EFF0F3;strokeColor=none;dashed=0;verticalAlign=top;fontStyle=0;fontColor=#232F3D;whiteSpace=wrap;html=1;" parent="j7e-t2jM2b2qdzSvDSfa-13" vertex="1">
          <mxGeometry x="290" y="40" width="230" height="170" as="geometry" />
        </mxCell>
        <mxCell id="j7e-t2jM2b2qdzSvDSfa-8" value="" style="sketch=0;outlineConnect=0;fontColor=#232F3E;gradientColor=none;fillColor=#E7157B;strokeColor=none;dashed=0;verticalLabelPosition=bottom;verticalAlign=top;align=center;html=1;fontSize=12;fontStyle=0;aspect=fixed;pointerEvents=1;shape=mxgraph.aws4.stack;" parent="j7e-t2jM2b2qdzSvDSfa-13" vertex="1">
          <mxGeometry x="366" y="87" width="78" height="76" as="geometry" />
        </mxCell>
        <mxCell id="j7e-t2jM2b2qdzSvDSfa-12" value="Batch Stack" style="fillColor=#EFF0F3;strokeColor=none;dashed=0;verticalAlign=top;fontStyle=0;fontColor=#232F3D;whiteSpace=wrap;html=1;" parent="j7e-t2jM2b2qdzSvDSfa-13" vertex="1">
          <mxGeometry x="290" y="240" width="230" height="170" as="geometry" />
        </mxCell>
        <mxCell id="j7e-t2jM2b2qdzSvDSfa-11" value="" style="sketch=0;outlineConnect=0;fontColor=#232F3E;gradientColor=none;fillColor=#E7157B;strokeColor=none;dashed=0;verticalLabelPosition=bottom;verticalAlign=top;align=center;html=1;fontSize=12;fontStyle=0;aspect=fixed;pointerEvents=1;shape=mxgraph.aws4.stack;" parent="j7e-t2jM2b2qdzSvDSfa-13" vertex="1">
          <mxGeometry x="366" y="287" width="78" height="76" as="geometry" />
        </mxCell>
        <mxCell id="j7e-t2jM2b2qdzSvDSfa-14" value="VPC" style="points=[[0,0],[0.25,0],[0.5,0],[0.75,0],[1,0],[1,0.25],[1,0.5],[1,0.75],[1,1],[0.75,1],[0.5,1],[0.25,1],[0,1],[0,0.75],[0,0.5],[0,0.25]];outlineConnect=0;gradientColor=none;html=1;whiteSpace=wrap;fontSize=12;fontStyle=0;container=1;pointerEvents=0;collapsible=0;recursiveResize=0;shape=mxgraph.aws4.group;grIcon=mxgraph.aws4.group_vpc;strokeColor=#248814;fillColor=none;verticalAlign=top;align=left;spacingLeft=30;fontColor=#AAB7B8;dashed=0;" parent="j7e-t2jM2b2qdzSvDSfa-3" vertex="1">
          <mxGeometry x="290" y="760" width="280" height="220" as="geometry" />
        </mxCell>
        <mxCell id="j7e-t2jM2b2qdzSvDSfa-16" value="VPC" style="points=[[0,0],[0.25,0],[0.5,0],[0.75,0],[1,0],[1,0.25],[1,0.5],[1,0.75],[1,1],[0.75,1],[0.5,1],[0.25,1],[0,1],[0,0.75],[0,0.5],[0,0.25]];outlineConnect=0;gradientColor=none;html=1;whiteSpace=wrap;fontSize=12;fontStyle=0;container=1;pointerEvents=0;collapsible=0;recursiveResize=0;shape=mxgraph.aws4.group;grIcon=mxgraph.aws4.group_vpc;strokeColor=#248814;fillColor=none;verticalAlign=top;align=left;spacingLeft=30;fontColor=#AAB7B8;dashed=0;" parent="j7e-t2jM2b2qdzSvDSfa-3" vertex="1">
          <mxGeometry x="290" y="30" width="280" height="230" as="geometry" />
        </mxCell>
        <mxCell id="j7e-t2jM2b2qdzSvDSfa-24" style="edgeStyle=orthogonalEdgeStyle;rounded=0;orthogonalLoop=1;jettySize=auto;html=1;" parent="j7e-t2jM2b2qdzSvDSfa-3" source="j7e-t2jM2b2qdzSvDSfa-19" target="j7e-t2jM2b2qdzSvDSfa-20" edge="1">
          <mxGeometry relative="1" as="geometry" />
        </mxCell>
        <mxCell id="j7e-t2jM2b2qdzSvDSfa-25" style="edgeStyle=orthogonalEdgeStyle;rounded=0;orthogonalLoop=1;jettySize=auto;html=1;exitX=1;exitY=0.5;exitDx=0;exitDy=0;exitPerimeter=0;" parent="j7e-t2jM2b2qdzSvDSfa-3" source="j7e-t2jM2b2qdzSvDSfa-19" target="j7e-t2jM2b2qdzSvDSfa-21" edge="1">
          <mxGeometry relative="1" as="geometry">
            <mxPoint x="108" y="260" as="sourcePoint" />
            <Array as="points">
              <mxPoint x="200" y="155" />
              <mxPoint x="200" y="519" />
            </Array>
          </mxGeometry>
        </mxCell>
        <mxCell id="j7e-t2jM2b2qdzSvDSfa-28" style="edgeStyle=orthogonalEdgeStyle;rounded=0;orthogonalLoop=1;jettySize=auto;html=1;" parent="j7e-t2jM2b2qdzSvDSfa-3" source="j7e-t2jM2b2qdzSvDSfa-19" target="j7e-t2jM2b2qdzSvDSfa-23" edge="1">
          <mxGeometry relative="1" as="geometry">
            <Array as="points">
              <mxPoint x="200" y="155" />
              <mxPoint x="200" y="864" />
            </Array>
          </mxGeometry>
        </mxCell>
        <mxCell id="j7e-t2jM2b2qdzSvDSfa-19" value="" style="sketch=0;points=[[0,0,0],[0.25,0,0],[0.5,0,0],[0.75,0,0],[1,0,0],[0,1,0],[0.25,1,0],[0.5,1,0],[0.75,1,0],[1,1,0],[0,0.25,0],[0,0.5,0],[0,0.75,0],[1,0.25,0],[1,0.5,0],[1,0.75,0]];outlineConnect=0;fontColor=#232F3E;fillColor=#8C4FFF;strokeColor=#ffffff;dashed=0;verticalLabelPosition=bottom;verticalAlign=top;align=center;html=1;fontSize=12;fontStyle=0;aspect=fixed;shape=mxgraph.aws4.resourceIcon;resIcon=mxgraph.aws4.transit_gateway;" parent="j7e-t2jM2b2qdzSvDSfa-3" vertex="1">
          <mxGeometry x="30" y="116" width="78" height="78" as="geometry" />
        </mxCell>
        <mxCell id="j7e-t2jM2b2qdzSvDSfa-20" value="" style="sketch=0;outlineConnect=0;fontColor=#232F3E;gradientColor=none;fillColor=#8C4FFF;strokeColor=none;dashed=0;verticalLabelPosition=bottom;verticalAlign=top;align=center;html=1;fontSize=12;fontStyle=0;aspect=fixed;pointerEvents=1;shape=mxgraph.aws4.transit_gateway_attachment;" parent="j7e-t2jM2b2qdzSvDSfa-3" vertex="1">
          <mxGeometry x="267" y="131" width="48" height="48" as="geometry" />
        </mxCell>
        <mxCell id="j7e-t2jM2b2qdzSvDSfa-21" value="" style="sketch=0;outlineConnect=0;fontColor=#232F3E;gradientColor=none;fillColor=#8C4FFF;strokeColor=none;dashed=0;verticalLabelPosition=bottom;verticalAlign=top;align=center;html=1;fontSize=12;fontStyle=0;aspect=fixed;pointerEvents=1;shape=mxgraph.aws4.transit_gateway_attachment;" parent="j7e-t2jM2b2qdzSvDSfa-3" vertex="1">
          <mxGeometry x="267" y="495" width="48" height="48" as="geometry" />
        </mxCell>
        <mxCell id="j7e-t2jM2b2qdzSvDSfa-23" value="" style="sketch=0;outlineConnect=0;fontColor=#232F3E;gradientColor=none;fillColor=#8C4FFF;strokeColor=none;dashed=0;verticalLabelPosition=bottom;verticalAlign=top;align=center;html=1;fontSize=12;fontStyle=0;aspect=fixed;pointerEvents=1;shape=mxgraph.aws4.transit_gateway_attachment;" parent="j7e-t2jM2b2qdzSvDSfa-3" vertex="1">
          <mxGeometry x="267" y="840" width="48" height="48" as="geometry" />
        </mxCell>
      </root>
    </mxGraphModel>
  </diagram>
  <diagram name="Page-1" id="xfCFg2q3PXjRgIIT1SDN">
    <mxGraphModel dx="3206" dy="2791" grid="1" gridSize="10" guides="1" tooltips="1" connect="1" arrows="1" fold="1" page="1" pageScale="1" pageWidth="850" pageHeight="1100" math="0" shadow="0">
      <root>
        <mxCell id="0" />
        <mxCell id="1" parent="0" />
        <mxCell id="eevtwR0so6-mNdFsetsh-87" style="edgeStyle=orthogonalEdgeStyle;rounded=0;orthogonalLoop=1;jettySize=auto;html=1;" parent="1" source="eevtwR0so6-mNdFsetsh-38" target="G3CnAi02FmFY357kmtfr-12" edge="1">
          <mxGeometry relative="1" as="geometry">
            <Array as="points">
              <mxPoint x="-700" y="-101" />
              <mxPoint x="-700" y="-101" />
            </Array>
          </mxGeometry>
        </mxCell>
        <mxCell id="eevtwR0so6-mNdFsetsh-88" value="&lt;div&gt;Access via Direct Connect or VPN*&lt;br&gt;&lt;/div&gt;" style="edgeLabel;html=1;align=center;verticalAlign=middle;resizable=0;points=[];labelBackgroundColor=#FFFFFF;" parent="eevtwR0so6-mNdFsetsh-87" vertex="1" connectable="0">
          <mxGeometry x="-0.4449" y="-1" relative="1" as="geometry">
            <mxPoint x="31" y="-59" as="offset" />
          </mxGeometry>
        </mxCell>
        <mxCell id="eevtwR0so6-mNdFsetsh-38" value="&lt;div&gt;Client&lt;/div&gt;&lt;div&gt;(Users)&lt;br&gt;&lt;/div&gt;" style="sketch=0;outlineConnect=0;fontColor=#232F3E;gradientColor=none;fillColor=#232F3D;strokeColor=none;dashed=0;verticalLabelPosition=bottom;verticalAlign=top;align=center;html=1;fontSize=12;fontStyle=0;aspect=fixed;pointerEvents=1;shape=mxgraph.aws4.client;" parent="1" vertex="1">
          <mxGeometry x="-720" y="-140" width="78" height="76" as="geometry" />
        </mxCell>
        <mxCell id="eevtwR0so6-mNdFsetsh-83" style="edgeStyle=orthogonalEdgeStyle;rounded=0;orthogonalLoop=1;jettySize=auto;html=1;exitX=0.5;exitY=0;exitDx=0;exitDy=0;exitPerimeter=0;" parent="1" edge="1" target="G3CnAi02FmFY357kmtfr-7">
          <mxGeometry relative="1" as="geometry">
            <mxPoint x="-80" y="1340" as="targetPoint" />
            <mxPoint x="-81" y="1401" as="sourcePoint" />
          </mxGeometry>
        </mxCell>
        <mxCell id="eevtwR0so6-mNdFsetsh-97" style="edgeStyle=orthogonalEdgeStyle;rounded=0;orthogonalLoop=1;jettySize=auto;html=1;" parent="1" target="G3CnAi02FmFY357kmtfr-10" edge="1">
          <mxGeometry relative="1" as="geometry">
            <mxPoint x="-42" y="1279" as="sourcePoint" />
            <mxPoint x="10.999999999999545" y="1279" as="targetPoint" />
          </mxGeometry>
        </mxCell>
        <mxCell id="eevtwR0so6-mNdFsetsh-96" value="AWS Cloud" style="points=[[0,0],[0.25,0],[0.5,0],[0.75,0],[1,0],[1,0.25],[1,0.5],[1,0.75],[1,1],[0.75,1],[0.5,1],[0.25,1],[0,1],[0,0.75],[0,0.5],[0,0.25]];outlineConnect=0;gradientColor=none;html=1;whiteSpace=wrap;fontSize=12;fontStyle=0;container=0;pointerEvents=0;collapsible=0;recursiveResize=0;shape=mxgraph.aws4.group;grIcon=mxgraph.aws4.group_aws_cloud_alt;strokeColor=#232F3E;fillColor=none;verticalAlign=top;align=left;spacingLeft=30;fontColor=#232F3E;dashed=0;" parent="1" vertex="1">
          <mxGeometry x="-560" y="-360" width="1880" height="1280" as="geometry" />
        </mxCell>
        <mxCell id="jnUGs7JZ7DDKbkI--buy-9" value="VPC (Shared Network)" style="points=[[0,0],[0.25,0],[0.5,0],[0.75,0],[1,0],[1,0.25],[1,0.5],[1,0.75],[1,1],[0.75,1],[0.5,1],[0.25,1],[0,1],[0,0.75],[0,0.5],[0,0.25]];outlineConnect=0;gradientColor=none;html=1;whiteSpace=wrap;fontSize=12;fontStyle=0;container=1;pointerEvents=0;collapsible=0;recursiveResize=0;shape=mxgraph.aws4.group;grIcon=mxgraph.aws4.group_vpc;strokeColor=#248814;fillColor=none;verticalAlign=top;align=left;spacingLeft=30;fontColor=#AAB7B8;dashed=0;" parent="1" vertex="1">
          <mxGeometry x="-240" y="-320" width="840" height="560" as="geometry" />
        </mxCell>
        <mxCell id="G3CnAi02FmFY357kmtfr-14" value="Availability zone A" style="sketch=0;outlineConnect=0;gradientColor=none;html=1;whiteSpace=wrap;fontSize=12;fontStyle=0;shape=mxgraph.aws4.group;grIcon=mxgraph.aws4.group_availability_zone;strokeColor=#545B64;fillColor=none;verticalAlign=top;align=left;spacingLeft=30;fontColor=#545B64;dashed=1;" vertex="1" parent="jnUGs7JZ7DDKbkI--buy-9">
          <mxGeometry x="40" y="40" width="760" height="160" as="geometry" />
        </mxCell>
        <mxCell id="G3CnAi02FmFY357kmtfr-15" value="Availability zone B" style="sketch=0;outlineConnect=0;gradientColor=none;html=1;whiteSpace=wrap;fontSize=12;fontStyle=0;shape=mxgraph.aws4.group;grIcon=mxgraph.aws4.group_availability_zone;strokeColor=#545B64;fillColor=none;verticalAlign=bottom;align=left;spacingLeft=30;fontColor=#545B64;dashed=1;" vertex="1" parent="jnUGs7JZ7DDKbkI--buy-9">
          <mxGeometry x="40" y="240" width="760" height="160" as="geometry" />
        </mxCell>
        <mxCell id="G3CnAi02FmFY357kmtfr-16" value="Private subnet (For TGW attachment, /28)" style="points=[[0,0],[0.25,0],[0.5,0],[0.75,0],[1,0],[1,0.25],[1,0.5],[1,0.75],[1,1],[0.75,1],[0.5,1],[0.25,1],[0,1],[0,0.75],[0,0.5],[0,0.25]];outlineConnect=0;gradientColor=none;html=1;whiteSpace=wrap;fontSize=12;fontStyle=0;container=1;pointerEvents=0;collapsible=0;recursiveResize=0;shape=mxgraph.aws4.group;grIcon=mxgraph.aws4.group_security_group;grStroke=0;strokeColor=#147EBA;fillColor=#E6F2F8;verticalAlign=top;align=left;spacingLeft=30;fontColor=#147EBA;dashed=0;" vertex="1" parent="jnUGs7JZ7DDKbkI--buy-9">
          <mxGeometry x="80" y="80" width="280" height="280" as="geometry" />
        </mxCell>
        <mxCell id="G3CnAi02FmFY357kmtfr-39" value="" style="sketch=0;outlineConnect=0;fontColor=#232F3E;gradientColor=none;fillColor=#8C4FFF;strokeColor=none;dashed=0;verticalLabelPosition=bottom;verticalAlign=top;align=center;html=1;fontSize=12;fontStyle=0;aspect=fixed;pointerEvents=1;shape=mxgraph.aws4.transit_gateway_attachment;" vertex="1" parent="G3CnAi02FmFY357kmtfr-16">
          <mxGeometry x="19" y="101" width="78" height="78" as="geometry" />
        </mxCell>
        <mxCell id="G3CnAi02FmFY357kmtfr-17" value="Private subnet (For Workload, /24)" style="points=[[0,0],[0.25,0],[0.5,0],[0.75,0],[1,0],[1,0.25],[1,0.5],[1,0.75],[1,1],[0.75,1],[0.5,1],[0.25,1],[0,1],[0,0.75],[0,0.5],[0,0.25]];outlineConnect=0;gradientColor=none;html=1;whiteSpace=wrap;fontSize=12;fontStyle=0;container=1;pointerEvents=0;collapsible=0;recursiveResize=0;shape=mxgraph.aws4.group;grIcon=mxgraph.aws4.group_security_group;grStroke=0;strokeColor=#147EBA;fillColor=#E6F2F8;verticalAlign=top;align=left;spacingLeft=30;fontColor=#147EBA;dashed=0;" vertex="1" parent="jnUGs7JZ7DDKbkI--buy-9">
          <mxGeometry x="400" y="80" width="360" height="280" as="geometry" />
        </mxCell>
        <mxCell id="G3CnAi02FmFY357kmtfr-20" value="VPC Endpoint" style="sketch=0;outlineConnect=0;fontColor=#232F3E;gradientColor=none;fillColor=#4D27AA;strokeColor=none;dashed=0;verticalLabelPosition=bottom;verticalAlign=top;align=center;html=1;fontSize=12;fontStyle=0;aspect=fixed;pointerEvents=1;shape=mxgraph.aws4.endpoints;" vertex="1" parent="G3CnAi02FmFY357kmtfr-17">
          <mxGeometry x="290" y="160" width="60" height="60" as="geometry" />
        </mxCell>
        <mxCell id="G3CnAi02FmFY357kmtfr-92" value="Bastion for Testing&lt;br&gt;(Windows or Linux)" style="sketch=0;points=[[0,0,0],[0.25,0,0],[0.5,0,0],[0.75,0,0],[1,0,0],[0,1,0],[0.25,1,0],[0.5,1,0],[0.75,1,0],[1,1,0],[0,0.25,0],[0,0.5,0],[0,0.75,0],[1,0.25,0],[1,0.5,0],[1,0.75,0]];outlineConnect=0;fontColor=#232F3E;fillColor=#ED7100;strokeColor=#ffffff;dashed=0;verticalLabelPosition=bottom;verticalAlign=top;align=center;html=1;fontSize=12;fontStyle=0;aspect=fixed;shape=mxgraph.aws4.resourceIcon;resIcon=mxgraph.aws4.ec2;" vertex="1" parent="G3CnAi02FmFY357kmtfr-17">
          <mxGeometry x="70" y="99" width="78" height="78" as="geometry" />
        </mxCell>
        <mxCell id="G3CnAi02FmFY357kmtfr-18" value="VPC Endpoint" style="sketch=0;outlineConnect=0;fontColor=#232F3E;gradientColor=none;fillColor=#4D27AA;strokeColor=none;dashed=0;verticalLabelPosition=bottom;verticalAlign=top;align=center;html=1;fontSize=12;fontStyle=0;aspect=fixed;pointerEvents=1;shape=mxgraph.aws4.endpoints;" vertex="1" parent="jnUGs7JZ7DDKbkI--buy-9">
          <mxGeometry x="690" y="127" width="60" height="60" as="geometry" />
        </mxCell>
        <mxCell id="G3CnAi02FmFY357kmtfr-38" style="edgeStyle=orthogonalEdgeStyle;rounded=0;orthogonalLoop=1;jettySize=auto;html=1;" edge="1" parent="jnUGs7JZ7DDKbkI--buy-9" source="G3CnAi02FmFY357kmtfr-33" target="G3CnAi02FmFY357kmtfr-36">
          <mxGeometry relative="1" as="geometry">
            <Array as="points">
              <mxPoint x="300" y="470" />
            </Array>
          </mxGeometry>
        </mxCell>
        <mxCell id="G3CnAi02FmFY357kmtfr-33" value="InboundResolver Endpoint" style="sketch=0;outlineConnect=0;fontColor=#232F3E;gradientColor=none;fillColor=#8C4FFF;strokeColor=none;dashed=0;verticalLabelPosition=bottom;verticalAlign=top;align=center;html=1;fontSize=12;fontStyle=0;aspect=fixed;pointerEvents=1;shape=mxgraph.aws4.elastic_network_interface;" vertex="1" parent="jnUGs7JZ7DDKbkI--buy-9">
          <mxGeometry x="270" y="130" width="60" height="60" as="geometry" />
        </mxCell>
        <mxCell id="G3CnAi02FmFY357kmtfr-93" style="edgeStyle=orthogonalEdgeStyle;rounded=0;orthogonalLoop=1;jettySize=auto;html=1;" edge="1" parent="jnUGs7JZ7DDKbkI--buy-9" source="G3CnAi02FmFY357kmtfr-36" target="G3CnAi02FmFY357kmtfr-37">
          <mxGeometry relative="1" as="geometry" />
        </mxCell>
        <mxCell id="G3CnAi02FmFY357kmtfr-36" value="Route 53 Resolver" style="sketch=0;outlineConnect=0;fontColor=#232F3E;gradientColor=none;fillColor=#8C4FFF;strokeColor=none;dashed=0;verticalLabelPosition=bottom;verticalAlign=top;align=center;html=1;fontSize=12;fontStyle=0;aspect=fixed;pointerEvents=1;shape=mxgraph.aws4.route_53_resolver;" vertex="1" parent="jnUGs7JZ7DDKbkI--buy-9">
          <mxGeometry x="270" y="440" width="60" height="60" as="geometry" />
        </mxCell>
        <mxCell id="G3CnAi02FmFY357kmtfr-37" value="Private Hosted Zone&lt;br&gt;(Manage application domain)" style="sketch=0;outlineConnect=0;fontColor=#232F3E;gradientColor=none;fillColor=#8C4FFF;strokeColor=none;dashed=0;verticalLabelPosition=bottom;verticalAlign=top;align=center;html=1;fontSize=12;fontStyle=0;aspect=fixed;pointerEvents=1;shape=mxgraph.aws4.hosted_zone;" vertex="1" parent="jnUGs7JZ7DDKbkI--buy-9">
          <mxGeometry x="120" y="440" width="60.78" height="60" as="geometry" />
        </mxCell>
        <mxCell id="FbcIof9eUmZf9t1YWD_p-2" value="&lt;div&gt;※Configuration of Direct Connect&amp;nbsp; or VPN is out of scope. So this diagram is partially omitted. If you want to confirm sample app, please use RDP via Fleet Manager.&lt;br&gt;&lt;/div&gt;" style="text;html=1;align=center;verticalAlign=middle;resizable=0;points=[];autosize=1;strokeColor=none;fillColor=none;" parent="1" vertex="1">
          <mxGeometry x="-170" y="930" width="890" height="30" as="geometry" />
        </mxCell>
        <mxCell id="G3CnAi02FmFY357kmtfr-40" style="edgeStyle=orthogonalEdgeStyle;rounded=0;orthogonalLoop=1;jettySize=auto;html=1;" edge="1" parent="1" source="G3CnAi02FmFY357kmtfr-11" target="G3CnAi02FmFY357kmtfr-39">
          <mxGeometry relative="1" as="geometry" />
        </mxCell>
        <mxCell id="G3CnAi02FmFY357kmtfr-11" value="" style="sketch=0;points=[[0,0,0],[0.25,0,0],[0.5,0,0],[0.75,0,0],[1,0,0],[0,1,0],[0.25,1,0],[0.5,1,0],[0.75,1,0],[1,1,0],[0,0.25,0],[0,0.5,0],[0,0.75,0],[1,0.25,0],[1,0.5,0],[1,0.75,0]];outlineConnect=0;fontColor=#232F3E;fillColor=#8C4FFF;strokeColor=#ffffff;dashed=0;verticalLabelPosition=bottom;verticalAlign=top;align=center;html=1;fontSize=12;fontStyle=0;aspect=fixed;shape=mxgraph.aws4.resourceIcon;resIcon=mxgraph.aws4.transit_gateway;" vertex="1" parent="1">
          <mxGeometry x="-360" y="-140" width="78" height="78" as="geometry" />
        </mxCell>
        <mxCell id="G3CnAi02FmFY357kmtfr-13" style="edgeStyle=orthogonalEdgeStyle;rounded=0;orthogonalLoop=1;jettySize=auto;html=1;entryX=0;entryY=0.5;entryDx=0;entryDy=0;entryPerimeter=0;" edge="1" parent="1" source="G3CnAi02FmFY357kmtfr-12" target="G3CnAi02FmFY357kmtfr-11">
          <mxGeometry relative="1" as="geometry" />
        </mxCell>
        <mxCell id="G3CnAi02FmFY357kmtfr-12" value="" style="sketch=0;outlineConnect=0;fontColor=#232F3E;gradientColor=none;fillColor=#8C4FFF;strokeColor=none;dashed=0;verticalLabelPosition=bottom;verticalAlign=top;align=center;html=1;fontSize=12;fontStyle=0;aspect=fixed;pointerEvents=1;shape=mxgraph.aws4.gateway;" vertex="1" parent="1">
          <mxGeometry x="-530" y="-140" width="76" height="78" as="geometry" />
        </mxCell>
        <mxCell id="G3CnAi02FmFY357kmtfr-32" style="edgeStyle=orthogonalEdgeStyle;rounded=0;orthogonalLoop=1;jettySize=auto;html=1;entryX=1;entryY=0.5;entryDx=0;entryDy=0;entryPerimeter=0;" edge="1" parent="1" source="G3CnAi02FmFY357kmtfr-23" target="G3CnAi02FmFY357kmtfr-24">
          <mxGeometry relative="1" as="geometry" />
        </mxCell>
        <mxCell id="G3CnAi02FmFY357kmtfr-23" value="&lt;div&gt;Client&lt;/div&gt;&lt;div&gt;(Developers)&lt;br&gt;&lt;/div&gt;" style="sketch=0;outlineConnect=0;fontColor=#232F3E;gradientColor=none;fillColor=#232F3D;strokeColor=none;dashed=0;verticalLabelPosition=bottom;verticalAlign=top;align=center;html=1;fontSize=12;fontStyle=0;aspect=fixed;pointerEvents=1;shape=mxgraph.aws4.client;" vertex="1" parent="1">
          <mxGeometry x="1400" y="-201" width="78" height="76" as="geometry" />
        </mxCell>
        <mxCell id="G3CnAi02FmFY357kmtfr-24" value="Amazon S3&lt;br&gt;(Source artifact)" style="sketch=0;points=[[0,0,0],[0.25,0,0],[0.5,0,0],[0.75,0,0],[1,0,0],[0,1,0],[0.25,1,0],[0.5,1,0],[0.75,1,0],[1,1,0],[0,0.25,0],[0,0.5,0],[0,0.75,0],[1,0.25,0],[1,0.5,0],[1,0.75,0]];outlineConnect=0;fontColor=#232F3E;fillColor=#7AA116;strokeColor=#ffffff;dashed=0;verticalLabelPosition=bottom;verticalAlign=top;align=center;html=1;fontSize=12;fontStyle=0;aspect=fixed;shape=mxgraph.aws4.resourceIcon;resIcon=mxgraph.aws4.s3;" vertex="1" parent="1">
          <mxGeometry x="1160" y="-202" width="78" height="78" as="geometry" />
        </mxCell>
        <mxCell id="G3CnAi02FmFY357kmtfr-30" style="edgeStyle=orthogonalEdgeStyle;rounded=0;orthogonalLoop=1;jettySize=auto;html=1;entryX=1;entryY=0.5;entryDx=0;entryDy=0;entryPerimeter=0;" edge="1" parent="1" source="G3CnAi02FmFY357kmtfr-25" target="G3CnAi02FmFY357kmtfr-26">
          <mxGeometry relative="1" as="geometry" />
        </mxCell>
        <mxCell id="G3CnAi02FmFY357kmtfr-31" style="edgeStyle=orthogonalEdgeStyle;rounded=0;orthogonalLoop=1;jettySize=auto;html=1;entryX=0;entryY=0.5;entryDx=0;entryDy=0;entryPerimeter=0;" edge="1" parent="1" source="G3CnAi02FmFY357kmtfr-25" target="G3CnAi02FmFY357kmtfr-24">
          <mxGeometry relative="1" as="geometry" />
        </mxCell>
        <mxCell id="G3CnAi02FmFY357kmtfr-58" style="edgeStyle=orthogonalEdgeStyle;rounded=0;orthogonalLoop=1;jettySize=auto;html=1;entryX=1;entryY=0.5;entryDx=0;entryDy=0;entryPerimeter=0;" edge="1" parent="1" source="G3CnAi02FmFY357kmtfr-25" target="G3CnAi02FmFY357kmtfr-56">
          <mxGeometry relative="1" as="geometry">
            <Array as="points">
              <mxPoint x="1039" y="-50" />
            </Array>
          </mxGeometry>
        </mxCell>
        <mxCell id="G3CnAi02FmFY357kmtfr-76" value="Deploy webapp" style="edgeLabel;html=1;align=center;verticalAlign=middle;resizable=0;points=[];" vertex="1" connectable="0" parent="G3CnAi02FmFY357kmtfr-58">
          <mxGeometry x="0.3774" y="5" relative="1" as="geometry">
            <mxPoint x="12" y="-5" as="offset" />
          </mxGeometry>
        </mxCell>
        <mxCell id="G3CnAi02FmFY357kmtfr-25" value="AWS CodePipeline" style="sketch=0;points=[[0,0,0],[0.25,0,0],[0.5,0,0],[0.75,0,0],[1,0,0],[0,1,0],[0.25,1,0],[0.5,1,0],[0.75,1,0],[1,1,0],[0,0.25,0],[0,0.5,0],[0,0.75,0],[1,0.25,0],[1,0.5,0],[1,0.75,0]];outlineConnect=0;fontColor=#232F3E;fillColor=#C925D1;strokeColor=#ffffff;dashed=0;verticalLabelPosition=bottom;verticalAlign=top;align=center;html=1;fontSize=12;fontStyle=0;aspect=fixed;shape=mxgraph.aws4.resourceIcon;resIcon=mxgraph.aws4.codepipeline;" vertex="1" parent="1">
          <mxGeometry x="1000" y="-202" width="78" height="78" as="geometry" />
        </mxCell>
        <mxCell id="G3CnAi02FmFY357kmtfr-29" style="edgeStyle=orthogonalEdgeStyle;rounded=0;orthogonalLoop=1;jettySize=auto;html=1;entryX=1;entryY=0.5;entryDx=0;entryDy=0;entryPerimeter=0;" edge="1" parent="1" source="G3CnAi02FmFY357kmtfr-26" target="G3CnAi02FmFY357kmtfr-27">
          <mxGeometry relative="1" as="geometry" />
        </mxCell>
        <mxCell id="G3CnAi02FmFY357kmtfr-26" value="AWS CodeBuild" style="sketch=0;points=[[0,0,0],[0.25,0,0],[0.5,0,0],[0.75,0,0],[1,0,0],[0,1,0],[0.25,1,0],[0.5,1,0],[0.75,1,0],[1,1,0],[0,0.25,0],[0,0.5,0],[0,0.75,0],[1,0.25,0],[1,0.5,0],[1,0.75,0]];outlineConnect=0;fontColor=#232F3E;fillColor=#C925D1;strokeColor=#ffffff;dashed=0;verticalLabelPosition=bottom;verticalAlign=top;align=center;html=1;fontSize=12;fontStyle=0;aspect=fixed;shape=mxgraph.aws4.resourceIcon;resIcon=mxgraph.aws4.codebuild;" vertex="1" parent="1">
          <mxGeometry x="840" y="-202" width="78" height="78" as="geometry" />
        </mxCell>
        <mxCell id="G3CnAi02FmFY357kmtfr-27" value="Amazon ECR" style="sketch=0;points=[[0,0,0],[0.25,0,0],[0.5,0,0],[0.75,0,0],[1,0,0],[0,1,0],[0.25,1,0],[0.5,1,0],[0.75,1,0],[1,1,0],[0,0.25,0],[0,0.5,0],[0,0.75,0],[1,0.25,0],[1,0.5,0],[1,0.75,0]];outlineConnect=0;fontColor=#232F3E;fillColor=#ED7100;strokeColor=#ffffff;dashed=0;verticalLabelPosition=bottom;verticalAlign=top;align=center;html=1;fontSize=12;fontStyle=0;aspect=fixed;shape=mxgraph.aws4.resourceIcon;resIcon=mxgraph.aws4.ecr;" vertex="1" parent="1">
          <mxGeometry x="680" y="-202" width="78" height="78" as="geometry" />
        </mxCell>
        <mxCell id="G3CnAi02FmFY357kmtfr-28" style="edgeStyle=orthogonalEdgeStyle;rounded=0;orthogonalLoop=1;jettySize=auto;html=1;entryX=0;entryY=0.5;entryDx=0;entryDy=0;entryPerimeter=0;" edge="1" parent="1" source="G3CnAi02FmFY357kmtfr-18" target="G3CnAi02FmFY357kmtfr-27">
          <mxGeometry relative="1" as="geometry" />
        </mxCell>
        <mxCell id="G3CnAi02FmFY357kmtfr-42" value="VPC (Application Network)" style="points=[[0,0],[0.25,0],[0.5,0],[0.75,0],[1,0],[1,0.25],[1,0.5],[1,0.75],[1,1],[0.75,1],[0.5,1],[0.25,1],[0,1],[0,0.75],[0,0.5],[0,0.25]];outlineConnect=0;gradientColor=none;html=1;whiteSpace=wrap;fontSize=12;fontStyle=0;container=1;pointerEvents=0;collapsible=0;recursiveResize=0;shape=mxgraph.aws4.group;grIcon=mxgraph.aws4.group_vpc;strokeColor=#248814;fillColor=none;verticalAlign=top;align=left;spacingLeft=30;fontColor=#AAB7B8;dashed=0;" vertex="1" parent="1">
          <mxGeometry x="-240" y="280" width="1000" height="600" as="geometry" />
        </mxCell>
        <mxCell id="G3CnAi02FmFY357kmtfr-43" value="Availability zone A" style="sketch=0;outlineConnect=0;gradientColor=none;html=1;whiteSpace=wrap;fontSize=12;fontStyle=0;shape=mxgraph.aws4.group;grIcon=mxgraph.aws4.group_availability_zone;strokeColor=#545B64;fillColor=none;verticalAlign=top;align=left;spacingLeft=30;fontColor=#545B64;dashed=1;" vertex="1" parent="G3CnAi02FmFY357kmtfr-42">
          <mxGeometry x="40" y="38" width="920" height="200" as="geometry" />
        </mxCell>
        <mxCell id="G3CnAi02FmFY357kmtfr-44" value="Availability zone B" style="sketch=0;outlineConnect=0;gradientColor=none;html=1;whiteSpace=wrap;fontSize=12;fontStyle=0;shape=mxgraph.aws4.group;grIcon=mxgraph.aws4.group_availability_zone;strokeColor=#545B64;fillColor=none;verticalAlign=bottom;align=left;spacingLeft=30;fontColor=#545B64;dashed=1;" vertex="1" parent="G3CnAi02FmFY357kmtfr-42">
          <mxGeometry x="40" y="279" width="920" height="280" as="geometry" />
        </mxCell>
        <mxCell id="G3CnAi02FmFY357kmtfr-45" value="Private subnet (For TGW attachment, /28)" style="points=[[0,0],[0.25,0],[0.5,0],[0.75,0],[1,0],[1,0.25],[1,0.5],[1,0.75],[1,1],[0.75,1],[0.5,1],[0.25,1],[0,1],[0,0.75],[0,0.5],[0,0.25]];outlineConnect=0;gradientColor=none;html=1;whiteSpace=wrap;fontSize=12;fontStyle=0;container=1;pointerEvents=0;collapsible=0;recursiveResize=0;shape=mxgraph.aws4.group;grIcon=mxgraph.aws4.group_security_group;grStroke=0;strokeColor=#147EBA;fillColor=#E6F2F8;verticalAlign=top;align=left;spacingLeft=30;fontColor=#147EBA;dashed=0;" vertex="1" parent="G3CnAi02FmFY357kmtfr-42">
          <mxGeometry x="80" y="80" width="280" height="440" as="geometry" />
        </mxCell>
        <mxCell id="G3CnAi02FmFY357kmtfr-46" value="" style="sketch=0;outlineConnect=0;fontColor=#232F3E;gradientColor=none;fillColor=#8C4FFF;strokeColor=none;dashed=0;verticalLabelPosition=bottom;verticalAlign=top;align=center;html=1;fontSize=12;fontStyle=0;aspect=fixed;pointerEvents=1;shape=mxgraph.aws4.transit_gateway_attachment;" vertex="1" parent="G3CnAi02FmFY357kmtfr-45">
          <mxGeometry x="19" y="140" width="78" height="78" as="geometry" />
        </mxCell>
        <mxCell id="G3CnAi02FmFY357kmtfr-47" value="Private subnet (For Workload, /24)" style="points=[[0,0],[0.25,0],[0.5,0],[0.75,0],[1,0],[1,0.25],[1,0.5],[1,0.75],[1,1],[0.75,1],[0.5,1],[0.25,1],[0,1],[0,0.75],[0,0.5],[0,0.25]];outlineConnect=0;gradientColor=none;html=1;whiteSpace=wrap;fontSize=12;fontStyle=0;container=1;pointerEvents=0;collapsible=0;recursiveResize=0;shape=mxgraph.aws4.group;grIcon=mxgraph.aws4.group_security_group;grStroke=0;strokeColor=#147EBA;fillColor=#E6F2F8;verticalAlign=top;align=left;spacingLeft=30;fontColor=#147EBA;dashed=0;" vertex="1" parent="G3CnAi02FmFY357kmtfr-42">
          <mxGeometry x="400" y="80" width="520" height="440" as="geometry" />
        </mxCell>
        <mxCell id="G3CnAi02FmFY357kmtfr-64" style="edgeStyle=orthogonalEdgeStyle;rounded=0;orthogonalLoop=1;jettySize=auto;html=1;" edge="1" parent="G3CnAi02FmFY357kmtfr-47" source="G3CnAi02FmFY357kmtfr-55" target="G3CnAi02FmFY357kmtfr-62">
          <mxGeometry relative="1" as="geometry">
            <Array as="points">
              <mxPoint x="140" y="179" />
              <mxPoint x="140" y="110" />
            </Array>
          </mxGeometry>
        </mxCell>
        <mxCell id="G3CnAi02FmFY357kmtfr-65" style="edgeStyle=orthogonalEdgeStyle;rounded=0;orthogonalLoop=1;jettySize=auto;html=1;" edge="1" parent="G3CnAi02FmFY357kmtfr-47" source="G3CnAi02FmFY357kmtfr-55" target="G3CnAi02FmFY357kmtfr-63">
          <mxGeometry relative="1" as="geometry">
            <Array as="points">
              <mxPoint x="140" y="179" />
              <mxPoint x="140" y="240" />
            </Array>
          </mxGeometry>
        </mxCell>
        <mxCell id="G3CnAi02FmFY357kmtfr-55" value="Application Load Balancer" style="sketch=0;outlineConnect=0;fontColor=#232F3E;gradientColor=none;fillColor=#8C4FFF;strokeColor=none;dashed=0;verticalLabelPosition=bottom;verticalAlign=top;align=center;html=1;fontSize=12;fontStyle=0;aspect=fixed;pointerEvents=1;shape=mxgraph.aws4.application_load_balancer;" vertex="1" parent="G3CnAi02FmFY357kmtfr-47">
          <mxGeometry x="20" y="140" width="78" height="78" as="geometry" />
        </mxCell>
        <mxCell id="G3CnAi02FmFY357kmtfr-60" value="Containers" style="fillColor=none;strokeColor=#5A6C86;dashed=1;verticalAlign=top;fontStyle=0;fontColor=#5A6C86;whiteSpace=wrap;html=1;" vertex="1" parent="G3CnAi02FmFY357kmtfr-47">
          <mxGeometry x="160" y="30" width="180" height="390" as="geometry" />
        </mxCell>
        <mxCell id="G3CnAi02FmFY357kmtfr-61" value="" style="sketch=0;points=[[0,0,0],[0.25,0,0],[0.5,0,0],[0.75,0,0],[1,0,0],[0,1,0],[0.25,1,0],[0.5,1,0],[0.75,1,0],[1,1,0],[0,0.25,0],[0,0.5,0],[0,0.75,0],[1,0.25,0],[1,0.5,0],[1,0.75,0]];outlineConnect=0;fontColor=#232F3E;fillColor=#ED7100;strokeColor=#ffffff;dashed=0;verticalLabelPosition=bottom;verticalAlign=top;align=center;html=1;fontSize=12;fontStyle=0;aspect=fixed;shape=mxgraph.aws4.resourceIcon;resIcon=mxgraph.aws4.fargate;" vertex="1" parent="G3CnAi02FmFY357kmtfr-47">
          <mxGeometry x="170" y="360" width="48" height="48" as="geometry" />
        </mxCell>
        <mxCell id="G3CnAi02FmFY357kmtfr-62" value="Webapp Container" style="sketch=0;outlineConnect=0;fontColor=#232F3E;gradientColor=none;fillColor=#ED7100;strokeColor=none;dashed=0;verticalLabelPosition=bottom;verticalAlign=top;align=center;html=1;fontSize=12;fontStyle=0;aspect=fixed;pointerEvents=1;shape=mxgraph.aws4.container_1;" vertex="1" parent="G3CnAi02FmFY357kmtfr-47">
          <mxGeometry x="226" y="90" width="48" height="31" as="geometry" />
        </mxCell>
        <mxCell id="G3CnAi02FmFY357kmtfr-63" value="Webapp Container" style="sketch=0;outlineConnect=0;fontColor=#232F3E;gradientColor=none;fillColor=#ED7100;strokeColor=none;dashed=0;verticalLabelPosition=bottom;verticalAlign=top;align=center;html=1;fontSize=12;fontStyle=0;aspect=fixed;pointerEvents=1;shape=mxgraph.aws4.container_1;" vertex="1" parent="G3CnAi02FmFY357kmtfr-47">
          <mxGeometry x="226" y="220" width="48" height="31" as="geometry" />
        </mxCell>
        <mxCell id="G3CnAi02FmFY357kmtfr-66" value="ACM Certificate" style="sketch=0;outlineConnect=0;fontColor=#232F3E;gradientColor=none;fillColor=#DD344C;strokeColor=none;dashed=0;verticalLabelPosition=bottom;verticalAlign=top;align=center;html=1;fontSize=12;fontStyle=0;aspect=fixed;pointerEvents=1;shape=mxgraph.aws4.certificate_manager_2;" vertex="1" parent="G3CnAi02FmFY357kmtfr-47">
          <mxGeometry x="60" y="70" width="45.5" height="42" as="geometry" />
        </mxCell>
        <mxCell id="G3CnAi02FmFY357kmtfr-69" value="Batch Container" style="sketch=0;outlineConnect=0;fontColor=#232F3E;gradientColor=none;fillColor=#ED7100;strokeColor=none;dashed=0;verticalLabelPosition=bottom;verticalAlign=top;align=center;html=1;fontSize=12;fontStyle=0;aspect=fixed;pointerEvents=1;shape=mxgraph.aws4.container_1;" vertex="1" parent="G3CnAi02FmFY357kmtfr-47">
          <mxGeometry x="226" y="290" width="48" height="31" as="geometry" />
        </mxCell>
        <mxCell id="G3CnAi02FmFY357kmtfr-50" style="edgeStyle=orthogonalEdgeStyle;rounded=0;orthogonalLoop=1;jettySize=auto;html=1;" edge="1" parent="G3CnAi02FmFY357kmtfr-42" source="G3CnAi02FmFY357kmtfr-51">
          <mxGeometry relative="1" as="geometry">
            <Array as="points">
              <mxPoint x="300" y="470" />
            </Array>
            <mxPoint x="300" y="440.0006820662061" as="targetPoint" />
          </mxGeometry>
        </mxCell>
        <mxCell id="G3CnAi02FmFY357kmtfr-70" value="Amazon Aurora&lt;br&gt;(PostgreSQL, Primary)" style="sketch=0;points=[[0,0,0],[0.25,0,0],[0.5,0,0],[0.75,0,0],[1,0,0],[0,1,0],[0.25,1,0],[0.5,1,0],[0.75,1,0],[1,1,0],[0,0.25,0],[0,0.5,0],[0,0.75,0],[1,0.25,0],[1,0.5,0],[1,0.75,0]];outlineConnect=0;fontColor=#232F3E;fillColor=#C925D1;strokeColor=#ffffff;dashed=0;verticalLabelPosition=bottom;verticalAlign=top;align=center;html=1;fontSize=12;fontStyle=0;aspect=fixed;shape=mxgraph.aws4.resourceIcon;resIcon=mxgraph.aws4.aurora;" vertex="1" parent="G3CnAi02FmFY357kmtfr-42">
          <mxGeometry x="810" y="130" width="78" height="78" as="geometry" />
        </mxCell>
        <mxCell id="G3CnAi02FmFY357kmtfr-71" value="Amazon Aurora&lt;br&gt;(PostgreSQL, ReadReplica)" style="sketch=0;points=[[0,0,0],[0.25,0,0],[0.5,0,0],[0.75,0,0],[1,0,0],[0,1,0],[0.25,1,0],[0.5,1,0],[0.75,1,0],[1,1,0],[0,0.25,0],[0,0.5,0],[0,0.75,0],[1,0.25,0],[1,0.5,0],[1,0.75,0]];outlineConnect=0;fontColor=#232F3E;fillColor=#C925D1;strokeColor=#ffffff;dashed=0;verticalLabelPosition=bottom;verticalAlign=top;align=center;html=1;fontSize=12;fontStyle=0;aspect=fixed;shape=mxgraph.aws4.resourceIcon;resIcon=mxgraph.aws4.aurora;" vertex="1" parent="G3CnAi02FmFY357kmtfr-42">
          <mxGeometry x="810" y="340" width="78" height="78" as="geometry" />
        </mxCell>
        <mxCell id="G3CnAi02FmFY357kmtfr-72" style="edgeStyle=orthogonalEdgeStyle;rounded=0;orthogonalLoop=1;jettySize=auto;html=1;entryX=0;entryY=0.5;entryDx=0;entryDy=0;entryPerimeter=0;" edge="1" parent="G3CnAi02FmFY357kmtfr-42" source="G3CnAi02FmFY357kmtfr-62" target="G3CnAi02FmFY357kmtfr-70">
          <mxGeometry relative="1" as="geometry">
            <Array as="points">
              <mxPoint x="760" y="185" />
              <mxPoint x="760" y="169" />
            </Array>
          </mxGeometry>
        </mxCell>
        <mxCell id="G3CnAi02FmFY357kmtfr-73" style="edgeStyle=orthogonalEdgeStyle;rounded=0;orthogonalLoop=1;jettySize=auto;html=1;entryX=0;entryY=0.5;entryDx=0;entryDy=0;entryPerimeter=0;" edge="1" parent="G3CnAi02FmFY357kmtfr-42" source="G3CnAi02FmFY357kmtfr-62" target="G3CnAi02FmFY357kmtfr-71">
          <mxGeometry relative="1" as="geometry">
            <Array as="points">
              <mxPoint x="760" y="185" />
              <mxPoint x="760" y="379" />
            </Array>
          </mxGeometry>
        </mxCell>
        <mxCell id="G3CnAi02FmFY357kmtfr-74" style="edgeStyle=orthogonalEdgeStyle;rounded=0;orthogonalLoop=1;jettySize=auto;html=1;entryX=0;entryY=0.5;entryDx=0;entryDy=0;entryPerimeter=0;" edge="1" parent="G3CnAi02FmFY357kmtfr-42" source="G3CnAi02FmFY357kmtfr-63" target="G3CnAi02FmFY357kmtfr-70">
          <mxGeometry relative="1" as="geometry">
            <Array as="points">
              <mxPoint x="760" y="315" />
              <mxPoint x="760" y="169" />
            </Array>
          </mxGeometry>
        </mxCell>
        <mxCell id="G3CnAi02FmFY357kmtfr-75" style="edgeStyle=orthogonalEdgeStyle;rounded=0;orthogonalLoop=1;jettySize=auto;html=1;entryX=0;entryY=0.5;entryDx=0;entryDy=0;entryPerimeter=0;" edge="1" parent="G3CnAi02FmFY357kmtfr-42" source="G3CnAi02FmFY357kmtfr-63" target="G3CnAi02FmFY357kmtfr-71">
          <mxGeometry relative="1" as="geometry">
            <Array as="points">
              <mxPoint x="760" y="315" />
              <mxPoint x="760" y="379" />
            </Array>
          </mxGeometry>
        </mxCell>
        <mxCell id="G3CnAi02FmFY357kmtfr-57" style="edgeStyle=orthogonalEdgeStyle;rounded=0;orthogonalLoop=1;jettySize=auto;html=1;" edge="1" parent="1" source="G3CnAi02FmFY357kmtfr-56" target="G3CnAi02FmFY357kmtfr-20">
          <mxGeometry relative="1" as="geometry" />
        </mxCell>
        <mxCell id="G3CnAi02FmFY357kmtfr-56" value="Amazon ECS" style="sketch=0;points=[[0,0,0],[0.25,0,0],[0.5,0,0],[0.75,0,0],[1,0,0],[0,1,0],[0.25,1,0],[0.5,1,0],[0.75,1,0],[1,1,0],[0,0.25,0],[0,0.5,0],[0,0.75,0],[1,0.25,0],[1,0.5,0],[1,0.75,0]];outlineConnect=0;fontColor=#232F3E;fillColor=#ED7100;strokeColor=#ffffff;dashed=0;verticalLabelPosition=bottom;verticalAlign=top;align=center;html=1;fontSize=12;fontStyle=0;aspect=fixed;shape=mxgraph.aws4.resourceIcon;resIcon=mxgraph.aws4.ecs;" vertex="1" parent="1">
          <mxGeometry x="680" y="-89" width="78" height="78" as="geometry" />
        </mxCell>
        <mxCell id="G3CnAi02FmFY357kmtfr-67" style="edgeStyle=orthogonalEdgeStyle;rounded=0;orthogonalLoop=1;jettySize=auto;html=1;entryX=0.5;entryY=0;entryDx=0;entryDy=0;dashed=1;dashPattern=8 8;" edge="1" parent="1" source="G3CnAi02FmFY357kmtfr-20" target="G3CnAi02FmFY357kmtfr-60">
          <mxGeometry relative="1" as="geometry" />
        </mxCell>
        <mxCell id="G3CnAi02FmFY357kmtfr-68" value="Request of deployment and running job via TGW" style="edgeLabel;html=1;align=center;verticalAlign=middle;resizable=0;points=[];" vertex="1" connectable="0" parent="G3CnAi02FmFY357kmtfr-67">
          <mxGeometry x="-0.3061" relative="1" as="geometry">
            <mxPoint x="-30" y="39" as="offset" />
          </mxGeometry>
        </mxCell>
        <mxCell id="G3CnAi02FmFY357kmtfr-54" style="edgeStyle=orthogonalEdgeStyle;rounded=0;orthogonalLoop=1;jettySize=auto;html=1;" edge="1" parent="1" source="G3CnAi02FmFY357kmtfr-11" target="G3CnAi02FmFY357kmtfr-46">
          <mxGeometry relative="1" as="geometry">
            <Array as="points">
              <mxPoint x="-321" y="539" />
            </Array>
          </mxGeometry>
        </mxCell>
        <mxCell id="G3CnAi02FmFY357kmtfr-78" style="edgeStyle=orthogonalEdgeStyle;rounded=0;orthogonalLoop=1;jettySize=auto;html=1;" edge="1" parent="1" source="G3CnAi02FmFY357kmtfr-77" target="G3CnAi02FmFY357kmtfr-56">
          <mxGeometry relative="1" as="geometry" />
        </mxCell>
        <mxCell id="G3CnAi02FmFY357kmtfr-79" value="Run job" style="edgeLabel;html=1;align=center;verticalAlign=middle;resizable=0;points=[];" vertex="1" connectable="0" parent="G3CnAi02FmFY357kmtfr-78">
          <mxGeometry x="-0.403" relative="1" as="geometry">
            <mxPoint x="1" as="offset" />
          </mxGeometry>
        </mxCell>
        <mxCell id="G3CnAi02FmFY357kmtfr-82" style="edgeStyle=orthogonalEdgeStyle;rounded=0;orthogonalLoop=1;jettySize=auto;html=1;" edge="1" parent="1" source="G3CnAi02FmFY357kmtfr-77" target="G3CnAi02FmFY357kmtfr-80">
          <mxGeometry relative="1" as="geometry">
            <Array as="points">
              <mxPoint x="940" y="160" />
              <mxPoint x="879" y="160" />
            </Array>
          </mxGeometry>
        </mxCell>
        <mxCell id="G3CnAi02FmFY357kmtfr-85" value="Notify" style="edgeLabel;html=1;align=center;verticalAlign=middle;resizable=0;points=[];" vertex="1" connectable="0" parent="G3CnAi02FmFY357kmtfr-82">
          <mxGeometry x="0.3486" y="-1" relative="1" as="geometry">
            <mxPoint as="offset" />
          </mxGeometry>
        </mxCell>
        <mxCell id="G3CnAi02FmFY357kmtfr-83" style="edgeStyle=orthogonalEdgeStyle;rounded=0;orthogonalLoop=1;jettySize=auto;html=1;entryX=0.5;entryY=0;entryDx=0;entryDy=0;entryPerimeter=0;" edge="1" parent="1" source="G3CnAi02FmFY357kmtfr-77" target="G3CnAi02FmFY357kmtfr-81">
          <mxGeometry relative="1" as="geometry">
            <Array as="points">
              <mxPoint x="980" y="160" />
              <mxPoint x="1039" y="160" />
            </Array>
          </mxGeometry>
        </mxCell>
        <mxCell id="G3CnAi02FmFY357kmtfr-84" value="Put job result" style="edgeLabel;html=1;align=center;verticalAlign=middle;resizable=0;points=[];" vertex="1" connectable="0" parent="G3CnAi02FmFY357kmtfr-83">
          <mxGeometry x="0.2748" y="1" relative="1" as="geometry">
            <mxPoint as="offset" />
          </mxGeometry>
        </mxCell>
        <mxCell id="G3CnAi02FmFY357kmtfr-77" value="AWS Step Functions" style="sketch=0;points=[[0,0,0],[0.25,0,0],[0.5,0,0],[0.75,0,0],[1,0,0],[0,1,0],[0.25,1,0],[0.5,1,0],[0.75,1,0],[1,1,0],[0,0.25,0],[0,0.5,0],[0,0.75,0],[1,0.25,0],[1,0.5,0],[1,0.75,0]];outlineConnect=0;fontColor=#232F3E;fillColor=#E7157B;strokeColor=#ffffff;dashed=0;verticalLabelPosition=bottom;verticalAlign=top;align=center;html=1;fontSize=12;fontStyle=0;aspect=fixed;shape=mxgraph.aws4.resourceIcon;resIcon=mxgraph.aws4.step_functions;" vertex="1" parent="1">
          <mxGeometry x="918" y="40" width="78" height="78" as="geometry" />
        </mxCell>
        <mxCell id="G3CnAi02FmFY357kmtfr-80" value="Amazon SNS" style="sketch=0;points=[[0,0,0],[0.25,0,0],[0.5,0,0],[0.75,0,0],[1,0,0],[0,1,0],[0.25,1,0],[0.5,1,0],[0.75,1,0],[1,1,0],[0,0.25,0],[0,0.5,0],[0,0.75,0],[1,0.25,0],[1,0.5,0],[1,0.75,0]];outlineConnect=0;fontColor=#232F3E;fillColor=#E7157B;strokeColor=#ffffff;dashed=0;verticalLabelPosition=bottom;verticalAlign=top;align=center;html=1;fontSize=12;fontStyle=0;aspect=fixed;shape=mxgraph.aws4.resourceIcon;resIcon=mxgraph.aws4.sns;" vertex="1" parent="1">
          <mxGeometry x="840" y="200" width="78" height="78" as="geometry" />
        </mxCell>
        <mxCell id="G3CnAi02FmFY357kmtfr-81" value="Amazon DynamoDB" style="sketch=0;points=[[0,0,0],[0.25,0,0],[0.5,0,0],[0.75,0,0],[1,0,0],[0,1,0],[0.25,1,0],[0.5,1,0],[0.75,1,0],[1,1,0],[0,0.25,0],[0,0.5,0],[0,0.75,0],[1,0.25,0],[1,0.5,0],[1,0.75,0]];outlineConnect=0;fontColor=#232F3E;fillColor=#C925D1;strokeColor=#ffffff;dashed=0;verticalLabelPosition=bottom;verticalAlign=top;align=center;html=1;fontSize=12;fontStyle=0;aspect=fixed;shape=mxgraph.aws4.resourceIcon;resIcon=mxgraph.aws4.dynamodb;" vertex="1" parent="1">
          <mxGeometry x="1000" y="200" width="78" height="78" as="geometry" />
        </mxCell>
        <mxCell id="G3CnAi02FmFY357kmtfr-87" style="edgeStyle=orthogonalEdgeStyle;rounded=0;orthogonalLoop=1;jettySize=auto;html=1;" edge="1" parent="1" source="G3CnAi02FmFY357kmtfr-86" target="G3CnAi02FmFY357kmtfr-77">
          <mxGeometry relative="1" as="geometry" />
        </mxCell>
        <mxCell id="G3CnAi02FmFY357kmtfr-86" value="Event Bridge Scheduler" style="sketch=0;outlineConnect=0;fontColor=#232F3E;gradientColor=none;fillColor=#E7157B;strokeColor=none;dashed=0;verticalLabelPosition=bottom;verticalAlign=top;align=center;html=1;fontSize=12;fontStyle=0;aspect=fixed;pointerEvents=1;shape=mxgraph.aws4.eventbridge_scheduler;" vertex="1" parent="1">
          <mxGeometry x="1160" y="40" width="78" height="78" as="geometry" />
        </mxCell>
        <mxCell id="G3CnAi02FmFY357kmtfr-89" style="edgeStyle=orthogonalEdgeStyle;rounded=0;orthogonalLoop=1;jettySize=auto;html=1;exitX=0.5;exitY=0;exitDx=0;exitDy=0;dashed=1;dashPattern=8 8;" edge="1" parent="1" source="G3CnAi02FmFY357kmtfr-42" target="G3CnAi02FmFY357kmtfr-36">
          <mxGeometry relative="1" as="geometry">
            <mxPoint x="260" y="290" as="sourcePoint" />
            <Array as="points">
              <mxPoint x="260" y="150" />
            </Array>
          </mxGeometry>
        </mxCell>
        <mxCell id="G3CnAi02FmFY357kmtfr-90" value="Switch DHCP Options to Shared Network Resolver" style="edgeLabel;html=1;align=center;verticalAlign=middle;resizable=0;points=[];" vertex="1" connectable="0" parent="G3CnAi02FmFY357kmtfr-89">
          <mxGeometry x="-0.8279" y="3" relative="1" as="geometry">
            <mxPoint x="-14" y="-115" as="offset" />
          </mxGeometry>
        </mxCell>
      </root>
    </mxGraphModel>
  </diagram>
</mxfile>
